<mxfile host="app.diagrams.net" modified="2024-07-01T11:03:13.558Z" agent="Mozilla/5.0 (Windows NT 10.0; Win64; x64) AppleWebKit/537.36 (KHTML, like Gecko) Chrome/126.0.0.0 Safari/537.36" etag="OMcYhf5c-4vvyH5WaiB4" version="24.6.4" type="github">
  <diagram name="Page-1" id="067-hT3hBOaRwuGbBcrd">
    <mxGraphModel dx="2219" dy="1041" grid="1" gridSize="10" guides="1" tooltips="1" connect="1" arrows="1" fold="1" page="0" pageScale="1" pageWidth="1654" pageHeight="1169" math="0" shadow="0">
      <root>
        <mxCell id="0" />
        <mxCell id="1" parent="0" />
        <mxCell id="TBd_OouaAgRiWHBHAVju-1" value="Utilisateur" style="swimlane;whiteSpace=wrap;html=1;fontFamily=Georgia;" vertex="1" parent="1">
          <mxGeometry x="357" y="175" width="362.5" height="905" as="geometry" />
        </mxCell>
        <mxCell id="TBd_OouaAgRiWHBHAVju-2" value="" style="ellipse;whiteSpace=wrap;html=1;aspect=fixed;fontFamily=Georgia;fillColor=#000000;" vertex="1" parent="TBd_OouaAgRiWHBHAVju-1">
          <mxGeometry x="24" y="52" width="24" height="24" as="geometry" />
        </mxCell>
        <mxCell id="TBd_OouaAgRiWHBHAVju-3" value="" style="endArrow=none;html=1;rounded=0;fontFamily=Georgia;fontSize=16;startSize=14;endSize=14;sourcePerimeterSpacing=8;targetPerimeterSpacing=8;curved=1;exitX=1;exitY=0.5;exitDx=0;exitDy=0;entryX=0;entryY=0.484;entryDx=0;entryDy=0;entryPerimeter=0;" edge="1" parent="TBd_OouaAgRiWHBHAVju-1" source="TBd_OouaAgRiWHBHAVju-2" target="TBd_OouaAgRiWHBHAVju-4">
          <mxGeometry width="50" height="50" relative="1" as="geometry">
            <mxPoint x="70" y="47.410000000000025" as="sourcePoint" />
            <mxPoint x="80" y="65" as="targetPoint" />
          </mxGeometry>
        </mxCell>
        <mxCell id="TBd_OouaAgRiWHBHAVju-4" value="Cliquer sur la fonctionnalité d&#39;édition de fiche de suivi" style="shape=ext;double=1;rounded=1;whiteSpace=wrap;html=1;fontFamily=Georgia;" vertex="1" parent="TBd_OouaAgRiWHBHAVju-1">
          <mxGeometry x="83" y="33" width="199" height="64" as="geometry" />
        </mxCell>
        <mxCell id="TBd_OouaAgRiWHBHAVju-5" value="Sélectionner la mission à éditer" style="shape=ext;double=1;rounded=1;whiteSpace=wrap;html=1;fontFamily=Georgia;" vertex="1" parent="TBd_OouaAgRiWHBHAVju-1">
          <mxGeometry x="81" y="151" width="200" height="41" as="geometry" />
        </mxCell>
        <mxCell id="TBd_OouaAgRiWHBHAVju-6" value="Cliquer sur le bouton d&#39;exportation" style="shape=ext;double=1;rounded=1;whiteSpace=wrap;html=1;fontFamily=Georgia;" vertex="1" parent="TBd_OouaAgRiWHBHAVju-1">
          <mxGeometry x="81" y="278" width="200" height="55" as="geometry" />
        </mxCell>
        <mxCell id="TBd_OouaAgRiWHBHAVju-7" value="Choisir le format auquel on veut exporter la fiche de suivi" style="shape=ext;double=1;rounded=1;whiteSpace=wrap;html=1;fontFamily=Georgia;" vertex="1" parent="TBd_OouaAgRiWHBHAVju-1">
          <mxGeometry x="79" y="472" width="200" height="55" as="geometry" />
        </mxCell>
        <mxCell id="TBd_OouaAgRiWHBHAVju-8" value="" style="shape=ext;double=1;rounded=1;whiteSpace=wrap;html=1;fontFamily=Architects Daughter;fontSource=https%3A%2F%2Ffonts.googleapis.com%2Fcss%3Ffamily%3DArchitects%2BDaughter;fillColor=#120d0d;fontSize=8;" vertex="1" parent="TBd_OouaAgRiWHBHAVju-1">
          <mxGeometry x="32.25" y="564" width="299.75" height="4" as="geometry" />
        </mxCell>
        <mxCell id="TBd_OouaAgRiWHBHAVju-9" value="Exporter en Excel" style="shape=ext;double=1;rounded=1;whiteSpace=wrap;html=1;fontFamily=Georgia;" vertex="1" parent="TBd_OouaAgRiWHBHAVju-1">
          <mxGeometry x="9" y="616" width="88" height="36" as="geometry" />
        </mxCell>
        <mxCell id="TBd_OouaAgRiWHBHAVju-10" value="Exporter en Word" style="shape=ext;double=1;rounded=1;whiteSpace=wrap;html=1;fontFamily=Georgia;" vertex="1" parent="TBd_OouaAgRiWHBHAVju-1">
          <mxGeometry x="131" y="616" width="88" height="36" as="geometry" />
        </mxCell>
        <mxCell id="TBd_OouaAgRiWHBHAVju-11" value="Exporter en PDF" style="shape=ext;double=1;rounded=1;whiteSpace=wrap;html=1;fontFamily=Georgia;" vertex="1" parent="TBd_OouaAgRiWHBHAVju-1">
          <mxGeometry x="252" y="616" width="88" height="36" as="geometry" />
        </mxCell>
        <mxCell id="TBd_OouaAgRiWHBHAVju-12" value="" style="endArrow=classic;html=1;rounded=0;fontFamily=Architects Daughter;fontSource=https%3A%2F%2Ffonts.googleapis.com%2Fcss%3Ffamily%3DArchitects%2BDaughter;fontSize=16;startSize=14;endSize=14;sourcePerimeterSpacing=8;targetPerimeterSpacing=8;edgeStyle=orthogonalEdgeStyle;" edge="1" parent="TBd_OouaAgRiWHBHAVju-1">
          <mxGeometry width="50" height="50" relative="1" as="geometry">
            <mxPoint x="183" y="525" as="sourcePoint" />
            <mxPoint x="173" y="564" as="targetPoint" />
          </mxGeometry>
        </mxCell>
        <mxCell id="TBd_OouaAgRiWHBHAVju-13" style="edgeStyle=none;curved=1;rounded=0;orthogonalLoop=1;jettySize=auto;html=1;exitX=1;exitY=0.5;exitDx=0;exitDy=0;fontFamily=Georgia;fontSize=16;startSize=14;endArrow=classicThin;endSize=14;sourcePerimeterSpacing=8;targetPerimeterSpacing=8;endFill=1;" edge="1" parent="TBd_OouaAgRiWHBHAVju-1">
          <mxGeometry relative="1" as="geometry">
            <mxPoint x="173" y="615" as="targetPoint" />
            <mxPoint x="172.9999999999999" y="567" as="sourcePoint" />
          </mxGeometry>
        </mxCell>
        <mxCell id="TBd_OouaAgRiWHBHAVju-14" value="Vue Next Js" style="swimlane;whiteSpace=wrap;html=1;fontFamily=Georgia;startSize=23;" vertex="1" parent="1">
          <mxGeometry x="800" y="175" width="442" height="905" as="geometry" />
        </mxCell>
        <mxCell id="TBd_OouaAgRiWHBHAVju-15" value="afficher la page contenant la liste des missions&amp;nbsp;" style="shape=ext;double=1;rounded=1;whiteSpace=wrap;html=1;fontFamily=Georgia;" vertex="1" parent="TBd_OouaAgRiWHBHAVju-14">
          <mxGeometry x="40" y="81" width="170" height="55" as="geometry" />
        </mxCell>
        <mxCell id="TBd_OouaAgRiWHBHAVju-16" value="Afficher la page d&#39;édition d&#39;une fiche de suivi avec les informations adéquates" style="shape=ext;double=1;rounded=1;whiteSpace=wrap;html=1;fontFamily=Georgia;" vertex="1" parent="TBd_OouaAgRiWHBHAVju-14">
          <mxGeometry x="80" y="233" width="240" height="55" as="geometry" />
        </mxCell>
        <mxCell id="TBd_OouaAgRiWHBHAVju-17" style="edgeStyle=none;curved=1;rounded=0;orthogonalLoop=1;jettySize=auto;html=1;exitX=0.5;exitY=1;exitDx=0;exitDy=0;fontFamily=Georgia;fontSize=16;startSize=14;endArrow=none;endSize=14;sourcePerimeterSpacing=8;targetPerimeterSpacing=8;endFill=0;strokeColor=#FF3333;" edge="1" parent="TBd_OouaAgRiWHBHAVju-14">
          <mxGeometry relative="1" as="geometry">
            <mxPoint x="300" y="474" as="targetPoint" />
            <mxPoint x="300" y="458" as="sourcePoint" />
          </mxGeometry>
        </mxCell>
        <mxCell id="TBd_OouaAgRiWHBHAVju-18" value="afficher la liste des formats auxquels on peut exporter la fiche&amp;nbsp;" style="shape=ext;double=1;rounded=1;whiteSpace=wrap;html=1;fontFamily=Georgia;" vertex="1" parent="TBd_OouaAgRiWHBHAVju-14">
          <mxGeometry x="80" y="423" width="240" height="55" as="geometry" />
        </mxCell>
        <mxCell id="TBd_OouaAgRiWHBHAVju-19" value="" style="ellipse;whiteSpace=wrap;html=1;aspect=fixed;fontFamily=Georgia;fillColor=none;" vertex="1" parent="TBd_OouaAgRiWHBHAVju-14">
          <mxGeometry x="187" y="847" width="46" height="46" as="geometry" />
        </mxCell>
        <mxCell id="TBd_OouaAgRiWHBHAVju-20" value="" style="ellipse;whiteSpace=wrap;html=1;aspect=fixed;fontFamily=Georgia;fillColor=#000000;" vertex="1" parent="TBd_OouaAgRiWHBHAVju-14">
          <mxGeometry x="195" y="856" width="28" height="28" as="geometry" />
        </mxCell>
        <mxCell id="TBd_OouaAgRiWHBHAVju-21" value="Télécharger le fichier sur le terminal de l&#39;utilisateur" style="shape=ext;double=1;rounded=1;whiteSpace=wrap;html=1;fontFamily=Georgia;" vertex="1" parent="TBd_OouaAgRiWHBHAVju-14">
          <mxGeometry x="125" y="665" width="170" height="55" as="geometry" />
        </mxCell>
        <mxCell id="TBd_OouaAgRiWHBHAVju-22" style="edgeStyle=orthogonalEdgeStyle;rounded=0;orthogonalLoop=1;jettySize=auto;html=1;fontFamily=Architects Daughter;fontSource=https%3A%2F%2Ffonts.googleapis.com%2Fcss%3Ffamily%3DArchitects%2BDaughter;fontSize=16;startSize=14;endArrow=classicThin;endSize=14;sourcePerimeterSpacing=8;targetPerimeterSpacing=8;endFill=1;exitX=1;exitY=0.75;exitDx=0;exitDy=0;" edge="1" parent="TBd_OouaAgRiWHBHAVju-14" source="TBd_OouaAgRiWHBHAVju-6">
          <mxGeometry relative="1" as="geometry">
            <mxPoint x="200" y="425" as="targetPoint" />
            <mxPoint x="-120" y="316" as="sourcePoint" />
            <Array as="points">
              <mxPoint x="-162" y="316" />
              <mxPoint x="200" y="316" />
            </Array>
          </mxGeometry>
        </mxCell>
        <mxCell id="TBd_OouaAgRiWHBHAVju-23" style="edgeStyle=none;curved=1;rounded=0;orthogonalLoop=1;jettySize=auto;html=1;exitX=0.5;exitY=1;exitDx=0;exitDy=0;fontFamily=Georgia;fontSize=16;startSize=14;endArrow=classicThin;endSize=14;sourcePerimeterSpacing=8;targetPerimeterSpacing=8;endFill=1;entryX=0.455;entryY=-0.072;entryDx=0;entryDy=0;entryPerimeter=0;" edge="1" parent="TBd_OouaAgRiWHBHAVju-14" source="TBd_OouaAgRiWHBHAVju-21" target="TBd_OouaAgRiWHBHAVju-25">
          <mxGeometry relative="1" as="geometry">
            <mxPoint x="212" y="755" as="targetPoint" />
            <mxPoint x="219.40999999999985" y="785" as="sourcePoint" />
          </mxGeometry>
        </mxCell>
        <mxCell id="TBd_OouaAgRiWHBHAVju-24" value="" style="edgeStyle=none;curved=1;rounded=0;orthogonalLoop=1;jettySize=auto;html=1;fontFamily=Georgia;fontSize=16;startSize=14;endArrow=classicThin;endSize=14;sourcePerimeterSpacing=8;targetPerimeterSpacing=8;endFill=1;" edge="1" parent="TBd_OouaAgRiWHBHAVju-14">
          <mxGeometry relative="1" as="geometry">
            <mxPoint x="208" y="845" as="targetPoint" />
            <mxPoint x="208" y="812" as="sourcePoint" />
          </mxGeometry>
        </mxCell>
        <mxCell id="TBd_OouaAgRiWHBHAVju-25" value="Afficher un message de succès à l&#39;utilisateur après l&#39;exportation" style="shape=ext;double=1;rounded=1;whiteSpace=wrap;html=1;fontFamily=Georgia;" vertex="1" parent="TBd_OouaAgRiWHBHAVju-14">
          <mxGeometry x="100" y="755" width="240" height="55" as="geometry" />
        </mxCell>
        <mxCell id="TBd_OouaAgRiWHBHAVju-54" value="&lt;font color=&quot;#ff0000&quot;&gt;afficher un tableau vide&lt;/font&gt;" style="shape=ext;double=1;rounded=1;whiteSpace=wrap;html=1;fontFamily=Georgia;strokeColor=#FF3333;" vertex="1" parent="TBd_OouaAgRiWHBHAVju-14">
          <mxGeometry x="240" y="81" width="170" height="55" as="geometry" />
        </mxCell>
        <mxCell id="TBd_OouaAgRiWHBHAVju-26" value="" style="endArrow=classic;html=1;rounded=0;fontFamily=Georgia;fontSize=16;startSize=14;endSize=14;sourcePerimeterSpacing=8;targetPerimeterSpacing=8;strokeColor=default;endFill=1;edgeStyle=orthogonalEdgeStyle;" edge="1" parent="1">
          <mxGeometry width="50" height="50" relative="1" as="geometry">
            <mxPoint x="638" y="217" as="sourcePoint" />
            <mxPoint x="930" y="260" as="targetPoint" />
            <Array as="points">
              <mxPoint x="930" y="217" />
            </Array>
          </mxGeometry>
        </mxCell>
        <mxCell id="TBd_OouaAgRiWHBHAVju-27" value="" style="endArrow=classic;html=1;rounded=0;fontFamily=Georgia;fontSize=16;startSize=14;endSize=14;sourcePerimeterSpacing=8;targetPerimeterSpacing=8;edgeStyle=orthogonalEdgeStyle;exitX=0;exitY=0.25;exitDx=0;exitDy=0;" edge="1" parent="1" source="TBd_OouaAgRiWHBHAVju-18">
          <mxGeometry width="50" height="50" relative="1" as="geometry">
            <mxPoint x="1029" y="616" as="sourcePoint" />
            <mxPoint x="519" y="646" as="targetPoint" />
            <Array as="points">
              <mxPoint x="890" y="612" />
              <mxPoint x="890" y="600" />
              <mxPoint x="519" y="600" />
            </Array>
          </mxGeometry>
        </mxCell>
        <mxCell id="TBd_OouaAgRiWHBHAVju-28" style="edgeStyle=orthogonalEdgeStyle;rounded=0;orthogonalLoop=1;jettySize=auto;html=1;exitX=0.5;exitY=1;exitDx=0;exitDy=0;entryX=1;entryY=0.25;entryDx=0;entryDy=0;fontFamily=Georgia;fontSize=16;startSize=14;endArrow=classic;endSize=14;sourcePerimeterSpacing=8;targetPerimeterSpacing=8;endFill=1;" edge="1" parent="1" source="TBd_OouaAgRiWHBHAVju-15" target="TBd_OouaAgRiWHBHAVju-5">
          <mxGeometry relative="1" as="geometry">
            <mxPoint x="1080.9999999999995" y="311" as="sourcePoint" />
            <mxPoint x="639" y="310.25" as="targetPoint" />
            <Array as="points">
              <mxPoint x="930" y="311" />
              <mxPoint x="930" y="336" />
            </Array>
          </mxGeometry>
        </mxCell>
        <mxCell id="TBd_OouaAgRiWHBHAVju-30" value="&lt;b&gt;&lt;font style=&quot;font-size: 22px;&quot;&gt;Notes&lt;/font&gt;&lt;/b&gt;&lt;div&gt;&lt;br&gt;&lt;/div&gt;&lt;div style=&quot;font-size: 19px;&quot;&gt;Le statut que doit avoir une&amp;nbsp;&lt;/div&gt;&lt;div style=&quot;font-size: 19px;&quot;&gt;mission pour être éditable dans&lt;/div&gt;&lt;div style=&quot;font-size: 19px;&quot;&gt;une fiche de suivi est &lt;span style=&quot;background-color: initial;&quot;&gt;encore&amp;nbsp;&lt;/span&gt;&lt;/div&gt;&lt;div style=&quot;font-size: 19px;&quot;&gt;&lt;span style=&quot;background-color: initial;&quot;&gt;indéterminé&lt;/span&gt;&lt;/div&gt;&lt;div style=&quot;font-size: 19px;&quot;&gt;&lt;br&gt;&lt;/div&gt;&lt;div style=&quot;font-size: 19px;&quot;&gt;&lt;font style=&quot;font-size: 19px;&quot;&gt;Le système comprend&lt;/font&gt;&lt;/div&gt;&lt;div style=&quot;font-size: 19px;&quot;&gt;&lt;font style=&quot;font-size: 19px;&quot;&gt;l&#39;application frontend,&lt;/font&gt;&lt;/div&gt;&lt;div style=&quot;font-size: 19px;&quot;&gt;&lt;font style=&quot;font-size: 19px;&quot;&gt;l&#39;application API et&amp;nbsp;&lt;/font&gt;&lt;/div&gt;&lt;div style=&quot;font-size: 19px;&quot;&gt;&lt;font style=&quot;font-size: 19px;&quot;&gt;la base de données&lt;/font&gt;&lt;/div&gt;" style="text;html=1;align=left;verticalAlign=middle;resizable=0;points=[];autosize=1;strokeColor=none;fillColor=none;fontSize=20;fontFamily=Georgia;" vertex="1" parent="1">
          <mxGeometry x="40" y="839" width="290" height="270" as="geometry" />
        </mxCell>
        <mxCell id="TBd_OouaAgRiWHBHAVju-31" style="edgeStyle=orthogonalEdgeStyle;rounded=0;orthogonalLoop=1;jettySize=auto;html=1;exitX=0;exitY=0.5;exitDx=0;exitDy=0;entryX=0.5;entryY=0;entryDx=0;entryDy=0;fontFamily=Georgia;fontSize=16;startSize=14;endArrow=classicThin;endSize=14;sourcePerimeterSpacing=8;targetPerimeterSpacing=8;endFill=1;" edge="1" parent="1" source="TBd_OouaAgRiWHBHAVju-16" target="TBd_OouaAgRiWHBHAVju-6">
          <mxGeometry relative="1" as="geometry">
            <Array as="points">
              <mxPoint x="880" y="424" />
              <mxPoint x="538" y="424" />
            </Array>
          </mxGeometry>
        </mxCell>
        <mxCell id="TBd_OouaAgRiWHBHAVju-32" style="edgeStyle=none;curved=1;rounded=0;orthogonalLoop=1;jettySize=auto;html=1;exitX=1;exitY=0.75;exitDx=0;exitDy=0;fontFamily=Georgia;fontSize=16;startSize=14;endArrow=classicThin;endSize=14;sourcePerimeterSpacing=8;targetPerimeterSpacing=8;endFill=1;strokeColor=none;" edge="1" parent="1" source="TBd_OouaAgRiWHBHAVju-5">
          <mxGeometry relative="1" as="geometry">
            <mxPoint x="1030" y="330" as="targetPoint" />
          </mxGeometry>
        </mxCell>
        <mxCell id="TBd_OouaAgRiWHBHAVju-33" style="edgeStyle=orthogonalEdgeStyle;rounded=0;orthogonalLoop=1;jettySize=auto;html=1;exitX=1;exitY=0.75;exitDx=0;exitDy=0;entryX=0.5;entryY=0;entryDx=0;entryDy=0;fontFamily=Georgia;fontSize=16;startSize=14;endArrow=classicThin;endSize=14;sourcePerimeterSpacing=8;targetPerimeterSpacing=8;endFill=1;" edge="1" parent="1" source="TBd_OouaAgRiWHBHAVju-5" target="TBd_OouaAgRiWHBHAVju-16">
          <mxGeometry relative="1" as="geometry">
            <Array as="points">
              <mxPoint x="636" y="360" />
              <mxPoint x="1157" y="360" />
            </Array>
          </mxGeometry>
        </mxCell>
        <mxCell id="TBd_OouaAgRiWHBHAVju-34" style="edgeStyle=none;curved=1;rounded=0;orthogonalLoop=1;jettySize=auto;html=1;exitX=1;exitY=0.5;exitDx=0;exitDy=0;fontFamily=Georgia;fontSize=16;startSize=14;endArrow=classicThin;endSize=14;sourcePerimeterSpacing=8;targetPerimeterSpacing=8;endFill=1;fontStyle=1;" edge="1" parent="1" source="TBd_OouaAgRiWHBHAVju-37">
          <mxGeometry relative="1" as="geometry">
            <mxPoint x="920" y="854" as="targetPoint" />
            <mxPoint x="1340" y="744" as="sourcePoint" />
          </mxGeometry>
        </mxCell>
        <mxCell id="TBd_OouaAgRiWHBHAVju-35" style="edgeStyle=none;curved=1;rounded=0;orthogonalLoop=1;jettySize=auto;html=1;exitX=1;exitY=0.5;exitDx=0;exitDy=0;fontFamily=Georgia;fontSize=16;startSize=14;endArrow=classicThin;endSize=14;sourcePerimeterSpacing=8;targetPerimeterSpacing=8;endFill=1;" edge="1" parent="1">
          <mxGeometry relative="1" as="geometry">
            <mxPoint x="670" y="790" as="targetPoint" />
            <mxPoint x="669.9999999999999" y="742" as="sourcePoint" />
          </mxGeometry>
        </mxCell>
        <mxCell id="TBd_OouaAgRiWHBHAVju-36" style="edgeStyle=none;curved=1;rounded=0;orthogonalLoop=1;jettySize=auto;html=1;exitX=1;exitY=0.5;exitDx=0;exitDy=0;fontFamily=Georgia;fontSize=16;startSize=14;endArrow=classicThin;endSize=14;sourcePerimeterSpacing=8;targetPerimeterSpacing=8;endFill=1;" edge="1" parent="1">
          <mxGeometry relative="1" as="geometry">
            <mxPoint x="401" y="790" as="targetPoint" />
            <mxPoint x="400.9999999999999" y="742" as="sourcePoint" />
          </mxGeometry>
        </mxCell>
        <mxCell id="TBd_OouaAgRiWHBHAVju-37" value="" style="rhombus;whiteSpace=wrap;html=1;fontFamily=Architects Daughter;fontSource=https%3A%2F%2Ffonts.googleapis.com%2Fcss%3Ffamily%3DArchitects%2BDaughter;" vertex="1" parent="1">
          <mxGeometry x="745" y="839" width="30" height="30" as="geometry" />
        </mxCell>
        <mxCell id="TBd_OouaAgRiWHBHAVju-38" value="" style="endArrow=classic;html=1;rounded=0;fontFamily=Architects Daughter;fontSource=https%3A%2F%2Ffonts.googleapis.com%2Fcss%3Ffamily%3DArchitects%2BDaughter;fontSize=16;startSize=14;endSize=14;sourcePerimeterSpacing=8;targetPerimeterSpacing=8;edgeStyle=orthogonalEdgeStyle;entryX=0.5;entryY=0;entryDx=0;entryDy=0;" edge="1" parent="1" target="TBd_OouaAgRiWHBHAVju-37">
          <mxGeometry width="50" height="50" relative="1" as="geometry">
            <mxPoint x="699" y="811" as="sourcePoint" />
            <mxPoint x="839" y="840" as="targetPoint" />
          </mxGeometry>
        </mxCell>
        <mxCell id="TBd_OouaAgRiWHBHAVju-39" value="" style="endArrow=classic;html=1;rounded=0;fontFamily=Architects Daughter;fontSource=https%3A%2F%2Ffonts.googleapis.com%2Fcss%3Ffamily%3DArchitects%2BDaughter;fontSize=16;startSize=14;endSize=14;sourcePerimeterSpacing=8;targetPerimeterSpacing=8;exitX=0.5;exitY=1;exitDx=0;exitDy=0;edgeStyle=orthogonalEdgeStyle;entryX=0.5;entryY=1;entryDx=0;entryDy=0;" edge="1" parent="1" source="TBd_OouaAgRiWHBHAVju-9" target="TBd_OouaAgRiWHBHAVju-37">
          <mxGeometry width="50" height="50" relative="1" as="geometry">
            <mxPoint x="650" y="810" as="sourcePoint" />
            <mxPoint x="840" y="930" as="targetPoint" />
            <Array as="points">
              <mxPoint x="410" y="900" />
              <mxPoint x="760" y="900" />
            </Array>
          </mxGeometry>
        </mxCell>
        <mxCell id="TBd_OouaAgRiWHBHAVju-40" value="" style="endArrow=classic;html=1;rounded=0;fontFamily=Architects Daughter;fontSource=https%3A%2F%2Ffonts.googleapis.com%2Fcss%3Ffamily%3DArchitects%2BDaughter;fontSize=16;startSize=14;endSize=14;sourcePerimeterSpacing=8;targetPerimeterSpacing=8;exitX=0.5;exitY=1;exitDx=0;exitDy=0;entryX=0;entryY=0.5;entryDx=0;entryDy=0;edgeStyle=orthogonalEdgeStyle;" edge="1" parent="1" source="TBd_OouaAgRiWHBHAVju-10" target="TBd_OouaAgRiWHBHAVju-37">
          <mxGeometry width="50" height="50" relative="1" as="geometry">
            <mxPoint x="690" y="600" as="sourcePoint" />
            <mxPoint x="740" y="550" as="targetPoint" />
          </mxGeometry>
        </mxCell>
        <mxCell id="TBd_OouaAgRiWHBHAVju-41" value="API" style="swimlane;whiteSpace=wrap;html=1;fontFamily=Georgia;" vertex="1" parent="1">
          <mxGeometry x="1320" y="175" width="442" height="905" as="geometry" />
        </mxCell>
        <mxCell id="TBd_OouaAgRiWHBHAVju-42" value="Retourner toutes les missions ayant pour statut&amp;nbsp;&lt;b&gt;(la liste des statut est indéfini)&lt;/b&gt;" style="shape=ext;double=1;rounded=1;whiteSpace=wrap;html=1;fontFamily=Georgia;" vertex="1" parent="TBd_OouaAgRiWHBHAVju-41">
          <mxGeometry x="30" y="175" width="180" height="55" as="geometry" />
        </mxCell>
        <mxCell id="TBd_OouaAgRiWHBHAVju-53" value="&lt;font color=&quot;#ff0000&quot;&gt;Ne Retrouver aucune donnée avec le statut adéquat&lt;/font&gt;" style="shape=ext;double=1;rounded=1;whiteSpace=wrap;html=1;fontFamily=Georgia;strokeColor=#FF3333;" vertex="1" parent="TBd_OouaAgRiWHBHAVju-41">
          <mxGeometry x="240" y="176" width="180" height="55" as="geometry" />
        </mxCell>
        <mxCell id="TBd_OouaAgRiWHBHAVju-55" value="Retourner les missions à éditer" style="shape=ext;double=1;rounded=1;whiteSpace=wrap;html=1;fontFamily=Georgia;" vertex="1" parent="TBd_OouaAgRiWHBHAVju-41">
          <mxGeometry x="122" y="65" width="180" height="55" as="geometry" />
        </mxCell>
        <mxCell id="TBd_OouaAgRiWHBHAVju-70" value="" style="rhombus;whiteSpace=wrap;html=1;fontFamily=Architects Daughter;fontSource=https%3A%2F%2Ffonts.googleapis.com%2Fcss%3Ffamily%3DArchitects%2BDaughter;" vertex="1" parent="TBd_OouaAgRiWHBHAVju-41">
          <mxGeometry x="205" y="144" width="30" height="25" as="geometry" />
        </mxCell>
        <mxCell id="TBd_OouaAgRiWHBHAVju-71" value="" style="endArrow=classicThin;html=1;rounded=0;fontFamily=Architects Daughter;fontSource=https%3A%2F%2Ffonts.googleapis.com%2Fcss%3Ffamily%3DArchitects%2BDaughter;fontSize=16;startSize=14;endSize=14;sourcePerimeterSpacing=8;targetPerimeterSpacing=8;curved=1;entryX=0.5;entryY=0;entryDx=0;entryDy=0;endFill=1;exitX=0.539;exitY=1.009;exitDx=0;exitDy=0;exitPerimeter=0;" edge="1" parent="TBd_OouaAgRiWHBHAVju-41" source="TBd_OouaAgRiWHBHAVju-55" target="TBd_OouaAgRiWHBHAVju-70">
          <mxGeometry width="50" height="50" relative="1" as="geometry">
            <mxPoint x="-120" y="315" as="sourcePoint" />
            <mxPoint x="-70" y="265" as="targetPoint" />
          </mxGeometry>
        </mxCell>
        <mxCell id="TBd_OouaAgRiWHBHAVju-72" value="" style="endArrow=classicThin;html=1;rounded=0;fontFamily=Architects Daughter;fontSource=https%3A%2F%2Ffonts.googleapis.com%2Fcss%3Ffamily%3DArchitects%2BDaughter;fontSize=16;startSize=14;endSize=14;sourcePerimeterSpacing=8;targetPerimeterSpacing=8;exitX=0;exitY=0.5;exitDx=0;exitDy=0;entryX=0.5;entryY=0;entryDx=0;entryDy=0;endFill=1;edgeStyle=orthogonalEdgeStyle;" edge="1" parent="TBd_OouaAgRiWHBHAVju-41" source="TBd_OouaAgRiWHBHAVju-70" target="TBd_OouaAgRiWHBHAVju-42">
          <mxGeometry width="50" height="50" relative="1" as="geometry">
            <mxPoint x="-120" y="315" as="sourcePoint" />
            <mxPoint x="-70" y="265" as="targetPoint" />
          </mxGeometry>
        </mxCell>
        <mxCell id="TBd_OouaAgRiWHBHAVju-75" value="&lt;font style=&quot;font-size: 12px;&quot;&gt;Si des donnnées&lt;/font&gt;" style="edgeLabel;html=1;align=center;verticalAlign=middle;resizable=0;points=[];fontSize=16;fontFamily=Architects Daughter;fontSource=https%3A%2F%2Ffonts.googleapis.com%2Fcss%3Ffamily%3DArchitects%2BDaughter;" vertex="1" connectable="0" parent="TBd_OouaAgRiWHBHAVju-72">
          <mxGeometry x="0.0628" y="1" relative="1" as="geometry">
            <mxPoint x="10" y="-13" as="offset" />
          </mxGeometry>
        </mxCell>
        <mxCell id="TBd_OouaAgRiWHBHAVju-73" value="" style="endArrow=classicThin;html=1;rounded=0;fontFamily=Architects Daughter;fontSource=https%3A%2F%2Ffonts.googleapis.com%2Fcss%3Ffamily%3DArchitects%2BDaughter;fontSize=16;startSize=14;endSize=14;sourcePerimeterSpacing=8;targetPerimeterSpacing=8;exitX=1;exitY=0.5;exitDx=0;exitDy=0;entryX=0.554;entryY=0.007;entryDx=0;entryDy=0;entryPerimeter=0;edgeStyle=orthogonalEdgeStyle;endFill=1;strokeColor=#FF0000;" edge="1" parent="TBd_OouaAgRiWHBHAVju-41" source="TBd_OouaAgRiWHBHAVju-70" target="TBd_OouaAgRiWHBHAVju-53">
          <mxGeometry width="50" height="50" relative="1" as="geometry">
            <mxPoint x="-120" y="315" as="sourcePoint" />
            <mxPoint x="-70" y="265" as="targetPoint" />
          </mxGeometry>
        </mxCell>
        <mxCell id="TBd_OouaAgRiWHBHAVju-74" value="&lt;font style=&quot;font-size: 12px;&quot;&gt;Si Aucune donnée&lt;/font&gt;" style="edgeLabel;html=1;align=center;verticalAlign=middle;resizable=0;points=[];fontSize=16;fontFamily=Architects Daughter;fontSource=https%3A%2F%2Ffonts.googleapis.com%2Fcss%3Ffamily%3DArchitects%2BDaughter;fontColor=#FF3333;" vertex="1" connectable="0" parent="TBd_OouaAgRiWHBHAVju-73">
          <mxGeometry x="-0.5184" y="-2" relative="1" as="geometry">
            <mxPoint x="25" y="-14" as="offset" />
          </mxGeometry>
        </mxCell>
        <mxCell id="TBd_OouaAgRiWHBHAVju-76" value="" style="endArrow=classicThin;html=1;rounded=0;fontFamily=Architects Daughter;fontSource=https%3A%2F%2Ffonts.googleapis.com%2Fcss%3Ffamily%3DArchitects%2BDaughter;fontSize=16;startSize=14;endSize=14;sourcePerimeterSpacing=8;targetPerimeterSpacing=8;exitX=0;exitY=0.5;exitDx=0;exitDy=0;entryX=0.647;entryY=1.055;entryDx=0;entryDy=0;entryPerimeter=0;edgeStyle=orthogonalEdgeStyle;endFill=1;" edge="1" parent="1" source="TBd_OouaAgRiWHBHAVju-42" target="TBd_OouaAgRiWHBHAVju-15">
          <mxGeometry width="50" height="50" relative="1" as="geometry">
            <mxPoint x="1070" y="540" as="sourcePoint" />
            <mxPoint x="1120" y="490" as="targetPoint" />
          </mxGeometry>
        </mxCell>
        <mxCell id="TBd_OouaAgRiWHBHAVju-77" value="" style="endArrow=classicThin;html=1;rounded=0;fontFamily=Architects Daughter;fontSource=https%3A%2F%2Ffonts.googleapis.com%2Fcss%3Ffamily%3DArchitects%2BDaughter;fontSize=16;startSize=14;endSize=14;sourcePerimeterSpacing=8;targetPerimeterSpacing=8;exitX=0.578;exitY=0.982;exitDx=0;exitDy=0;exitPerimeter=0;entryX=0.718;entryY=1.073;entryDx=0;entryDy=0;entryPerimeter=0;edgeStyle=orthogonalEdgeStyle;strokeColor=#FF3333;endFill=1;" edge="1" parent="1" source="TBd_OouaAgRiWHBHAVju-53" target="TBd_OouaAgRiWHBHAVju-54">
          <mxGeometry width="50" height="50" relative="1" as="geometry">
            <mxPoint x="1070" y="540" as="sourcePoint" />
            <mxPoint x="1120" y="490" as="targetPoint" />
          </mxGeometry>
        </mxCell>
        <mxCell id="TBd_OouaAgRiWHBHAVju-78" value="Retourner des données" style="shape=ext;double=1;rounded=1;whiteSpace=wrap;html=1;fontFamily=Georgia;" vertex="1" parent="1">
          <mxGeometry x="1351" y="840" width="180" height="55" as="geometry" />
        </mxCell>
        <mxCell id="TBd_OouaAgRiWHBHAVju-79" value="&lt;font color=&quot;#ff0000&quot;&gt;Retourner aucune donnée&lt;/font&gt;" style="shape=ext;double=1;rounded=1;whiteSpace=wrap;html=1;fontFamily=Georgia;strokeColor=#FF3333;" vertex="1" parent="1">
          <mxGeometry x="1561" y="841" width="180" height="55" as="geometry" />
        </mxCell>
        <mxCell id="TBd_OouaAgRiWHBHAVju-80" value="Retourner les données sur les MOJ affectées à la mission" style="shape=ext;double=1;rounded=1;whiteSpace=wrap;html=1;fontFamily=Georgia;" vertex="1" parent="1">
          <mxGeometry x="1443" y="730" width="180" height="55" as="geometry" />
        </mxCell>
        <mxCell id="TBd_OouaAgRiWHBHAVju-81" value="" style="rhombus;whiteSpace=wrap;html=1;fontFamily=Architects Daughter;fontSource=https%3A%2F%2Ffonts.googleapis.com%2Fcss%3Ffamily%3DArchitects%2BDaughter;" vertex="1" parent="1">
          <mxGeometry x="1526" y="809" width="30" height="25" as="geometry" />
        </mxCell>
        <mxCell id="TBd_OouaAgRiWHBHAVju-82" value="" style="endArrow=classicThin;html=1;rounded=0;fontFamily=Architects Daughter;fontSource=https%3A%2F%2Ffonts.googleapis.com%2Fcss%3Ffamily%3DArchitects%2BDaughter;fontSize=16;startSize=14;endSize=14;sourcePerimeterSpacing=8;targetPerimeterSpacing=8;curved=1;entryX=0.5;entryY=0;entryDx=0;entryDy=0;endFill=1;exitX=0.539;exitY=1.009;exitDx=0;exitDy=0;exitPerimeter=0;" edge="1" parent="1" source="TBd_OouaAgRiWHBHAVju-80" target="TBd_OouaAgRiWHBHAVju-81">
          <mxGeometry width="50" height="50" relative="1" as="geometry">
            <mxPoint x="1201" y="980" as="sourcePoint" />
            <mxPoint x="1251" y="930" as="targetPoint" />
          </mxGeometry>
        </mxCell>
        <mxCell id="TBd_OouaAgRiWHBHAVju-83" value="" style="endArrow=classicThin;html=1;rounded=0;fontFamily=Architects Daughter;fontSource=https%3A%2F%2Ffonts.googleapis.com%2Fcss%3Ffamily%3DArchitects%2BDaughter;fontSize=16;startSize=14;endSize=14;sourcePerimeterSpacing=8;targetPerimeterSpacing=8;exitX=0;exitY=0.5;exitDx=0;exitDy=0;entryX=0.5;entryY=0;entryDx=0;entryDy=0;endFill=1;edgeStyle=orthogonalEdgeStyle;" edge="1" parent="1" source="TBd_OouaAgRiWHBHAVju-81" target="TBd_OouaAgRiWHBHAVju-78">
          <mxGeometry width="50" height="50" relative="1" as="geometry">
            <mxPoint x="1201" y="980" as="sourcePoint" />
            <mxPoint x="1251" y="930" as="targetPoint" />
          </mxGeometry>
        </mxCell>
        <mxCell id="TBd_OouaAgRiWHBHAVju-84" value="&lt;font style=&quot;font-size: 12px;&quot;&gt;Si des donnnées&lt;/font&gt;" style="edgeLabel;html=1;align=center;verticalAlign=middle;resizable=0;points=[];fontSize=16;fontFamily=Architects Daughter;fontSource=https%3A%2F%2Ffonts.googleapis.com%2Fcss%3Ffamily%3DArchitects%2BDaughter;" vertex="1" connectable="0" parent="TBd_OouaAgRiWHBHAVju-83">
          <mxGeometry x="0.0628" y="1" relative="1" as="geometry">
            <mxPoint x="10" y="-13" as="offset" />
          </mxGeometry>
        </mxCell>
        <mxCell id="TBd_OouaAgRiWHBHAVju-87" value="" style="endArrow=classicThin;html=1;rounded=0;fontFamily=Architects Daughter;fontSource=https%3A%2F%2Ffonts.googleapis.com%2Fcss%3Ffamily%3DArchitects%2BDaughter;fontSize=16;startSize=14;endSize=14;sourcePerimeterSpacing=8;targetPerimeterSpacing=8;exitX=1;exitY=0.5;exitDx=0;exitDy=0;edgeStyle=orthogonalEdgeStyle;endFill=1;strokeColor=#FF0000;" edge="1" parent="1" source="TBd_OouaAgRiWHBHAVju-81">
          <mxGeometry width="50" height="50" relative="1" as="geometry">
            <mxPoint x="990" y="670" as="sourcePoint" />
            <mxPoint x="1640" y="840" as="targetPoint" />
          </mxGeometry>
        </mxCell>
        <mxCell id="TBd_OouaAgRiWHBHAVju-88" value="&lt;font color=&quot;#ff0000&quot; style=&quot;font-size: 12px;&quot;&gt;Si aucune donnée&lt;/font&gt;" style="edgeLabel;html=1;align=center;verticalAlign=middle;resizable=0;points=[];fontSize=16;fontFamily=Architects Daughter;fontSource=https%3A%2F%2Ffonts.googleapis.com%2Fcss%3Ffamily%3DArchitects%2BDaughter;fontColor=default;labelBackgroundColor=none;" vertex="1" connectable="0" parent="TBd_OouaAgRiWHBHAVju-87">
          <mxGeometry x="0.0787" y="-1" relative="1" as="geometry">
            <mxPoint x="-10" y="-10" as="offset" />
          </mxGeometry>
        </mxCell>
        <mxCell id="TBd_OouaAgRiWHBHAVju-89" value="" style="endArrow=classicThin;html=1;rounded=0;fontFamily=Architects Daughter;fontSource=https%3A%2F%2Ffonts.googleapis.com%2Fcss%3Ffamily%3DArchitects%2BDaughter;fontSize=16;startSize=14;endSize=14;sourcePerimeterSpacing=8;targetPerimeterSpacing=8;entryX=0.441;entryY=0;entryDx=0;entryDy=0;entryPerimeter=0;edgeStyle=orthogonalEdgeStyle;endFill=1;exitX=0;exitY=0.5;exitDx=0;exitDy=0;" edge="1" parent="1" source="TBd_OouaAgRiWHBHAVju-80" target="TBd_OouaAgRiWHBHAVju-21">
          <mxGeometry width="50" height="50" relative="1" as="geometry">
            <mxPoint x="1420" y="760" as="sourcePoint" />
            <mxPoint x="1040" y="620" as="targetPoint" />
            <Array as="points">
              <mxPoint x="1443" y="760" />
              <mxPoint x="1000" y="760" />
            </Array>
          </mxGeometry>
        </mxCell>
        <mxCell id="TBd_OouaAgRiWHBHAVju-90" value="&lt;div style=&quot;forced-color-adjust: none; border-color: var(--border-color); color: rgb(0, 0, 0); font-family: -apple-system, BlinkMacSystemFont, &amp;quot;Segoe UI Variable&amp;quot;, &amp;quot;Segoe UI&amp;quot;, system-ui, ui-sans-serif, Helvetica, Arial, sans-serif, &amp;quot;Apple Color Emoji&amp;quot;, &amp;quot;Segoe UI Emoji&amp;quot;; font-size: 14px; font-style: normal; font-variant-ligatures: normal; font-variant-caps: normal; font-weight: 400; letter-spacing: normal; orphans: 2; text-align: start; text-indent: 0px; text-transform: none; widows: 2; word-spacing: 0px; -webkit-text-stroke-width: 0px; white-space: normal; text-decoration-thickness: initial; text-decoration-style: initial; text-decoration-color: initial; position: absolute; top: -4px; opacity: 0.25; animation: 0.666667s linear 0s infinite normal none running opacity-60-25-4-12;&quot;&gt;&lt;br class=&quot;Apple-interchange-newline&quot;&gt;&lt;div style=&quot;forced-color-adjust: none; border-color: var(--border-color); position: absolute; width: 32px; height: 8px; background: rgb(0, 0, 0); box-shadow: rgba(0, 0, 0, 0.1) 0px 0px 1px; transform-origin: left center; transform: rotate(120deg) translate(12px, 0px); border-radius: 4px;&quot;&gt;&lt;/div&gt;&lt;/div&gt;&lt;div style=&quot;forced-color-adjust: none; border-color: var(--border-color); color: rgb(0, 0, 0); font-family: -apple-system, BlinkMacSystemFont, &amp;quot;Segoe UI Variable&amp;quot;, &amp;quot;Segoe UI&amp;quot;, system-ui, ui-sans-serif, Helvetica, Arial, sans-serif, &amp;quot;Apple Color Emoji&amp;quot;, &amp;quot;Segoe UI Emoji&amp;quot;; font-size: 14px; font-style: normal; font-variant-ligatures: normal; font-variant-caps: normal; font-weight: 400; letter-spacing: normal; orphans: 2; text-align: start; text-indent: 0px; text-transform: none; widows: 2; word-spacing: 0px; -webkit-text-stroke-width: 0px; white-space: normal; text-decoration-thickness: initial; text-decoration-style: initial; text-decoration-color: initial; position: absolute; top: -4px; opacity: 0.25; animation: 0.666667s linear 0s infinite normal none running opacity-60-25-5-12;&quot;&gt;&lt;br class=&quot;Apple-interchange-newline&quot;&gt;&lt;/div&gt;" style="text;whiteSpace=wrap;html=1;fontFamily=Architects Daughter;fontSource=https%3A%2F%2Ffonts.googleapis.com%2Fcss%3Ffamily%3DArchitects%2BDaughter;" vertex="1" parent="1">
          <mxGeometry x="1070" y="700" width="30" height="20" as="geometry" />
        </mxCell>
      </root>
    </mxGraphModel>
  </diagram>
</mxfile>
